# 3ds Max Wavefront OBJ Exporter v0.97b - (c)2007 guruware
# File Created: 12.12.2018 22:27:31

mtllib Caja.mtl

#
# object pCube1
#

v  1.9009 1.6085 2.3267
v  1.9009 5.4103 2.3267
v  -1.9009 5.4103 2.3267
v  -1.9009 1.6085 2.3267
v  1.9009 5.8361 1.9009
v  1.9009 5.8361 -1.9009
v  -1.9009 5.8361 -1.9009
v  -1.9009 5.8361 1.9009
v  1.9009 5.4103 -2.3267
v  1.9009 1.6085 -2.3267
v  -1.9009 1.6085 -2.3267
v  -1.9009 5.4103 -2.3267
v  1.9009 1.1827 -1.9009
v  1.9009 1.1827 1.9009
v  -1.9009 1.1827 1.9009
v  -1.9009 1.1827 -1.9009
v  2.3267 1.6085 -1.9009
v  2.3267 5.4103 -1.9009
v  2.3267 5.4103 1.9009
v  2.3267 1.6085 1.9009
v  -2.3267 1.6085 1.9009
v  -2.3267 5.4103 1.9009
v  -2.3267 5.4103 -1.9009
v  -2.3267 1.6085 -1.9009
v  2.4267 1.0827 2.4267
v  1.9009 1.6085 2.4267
v  -1.9009 1.6085 2.4267
v  -2.4267 1.0827 2.4267
v  2.4267 5.9361 2.4267
v  1.9009 5.4103 2.4267
v  -2.4267 5.9361 2.4267
v  -1.9009 5.4103 2.4267
v  1.9009 5.9361 1.9009
v  -1.9009 5.9361 1.9009
v  2.4267 5.9361 -2.4267
v  1.9009 5.9361 -1.9009
v  -2.4267 5.9361 -2.4267
v  -1.9009 5.9361 -1.9009
v  1.9009 5.4103 -2.4267
v  -1.9009 5.4103 -2.4267
v  2.4267 1.0827 -2.4267
v  1.9009 1.6085 -2.4267
v  -2.4267 1.0827 -2.4267
v  -1.9009 1.6085 -2.4267
v  1.9009 1.0827 -1.9009
v  -1.9009 1.0827 -1.9009
v  1.9009 1.0827 1.9009
v  -1.9009 1.0827 1.9009
v  2.4267 1.6085 -1.9009
v  2.4267 1.6085 1.9009
v  2.4267 5.4103 -1.9009
v  2.4267 5.4103 1.9009
v  -2.4267 1.6085 1.9009
v  -2.4267 1.6085 -1.9009
v  -2.4267 5.4103 1.9009
v  -2.4267 5.4103 -1.9009
# 56 vertices

vn 0.0000 0.0000 1.0000
vn 0.0000 1.0000 0.0000
vn 0.0000 0.0000 -1.0000
vn 0.0000 -1.0000 0.0000
vn 1.0000 0.0000 0.0000
vn -1.0000 0.0000 0.0000
vn -0.0000 0.0000 1.0000
vn -0.0000 1.0000 0.0000
vn 0.0000 1.0000 -0.0000
vn -0.0000 1.0000 -0.0000
vn -0.0000 0.0000 -1.0000
vn 0.0000 -1.0000 -0.0000
vn -0.0000 -1.0000 -0.0000
vn -0.0000 -1.0000 0.0000
vn 1.0000 -0.0000 -0.0000
vn 1.0000 -0.0000 0.0000
vn 1.0000 0.0000 -0.0000
vn -1.0000 -0.0000 0.0000
vn -1.0000 -0.0000 -0.0000
vn -1.0000 0.0000 -0.0000
vn 0.0000 -0.0000 1.0000
vn 0.0000 -0.0000 -1.0000
# 22 vertex normals

vt 0.5552 0.4013 0.0000
vt 0.4041 0.5491 0.0000
vt 0.2563 0.3980 0.0000
vt 0.4074 0.2502 0.0000
vt 0.3602 0.5920 0.0000
vt 0.2091 0.7398 0.0000
vt 0.0613 0.5888 0.0000
vt 0.2124 0.4409 0.0000
vt 0.6378 0.7880 0.0000
vt 0.7889 0.6403 0.0000
vt 0.9367 0.7914 0.0000
vt 0.7856 0.9391 0.0000
vt 0.7502 0.2105 0.0000
vt 0.5991 0.3583 0.0000
vt 0.4513 0.2072 0.0000
vt 0.6024 0.0594 0.0000
vt 0.7459 0.5963 0.0000
vt 0.5948 0.7441 0.0000
vt 0.4471 0.5930 0.0000
vt 0.5982 0.4452 0.0000
vt 0.3644 0.2062 0.0000
vt 0.2133 0.3540 0.0000
vt 0.0655 0.2030 0.0000
vt 0.2166 0.0552 0.0000
vt 0.5986 0.4017 0.0000
vt 0.5577 0.4013 0.0000
vt 0.4074 0.2477 0.0000
vt 0.4079 0.2067 0.0000
vt 0.4036 0.5925 0.0000
vt 0.4041 0.5516 0.0000
vt 0.2128 0.3975 0.0000
vt 0.2538 0.3979 0.0000
vt 0.3627 0.5921 0.0000
vt 0.2124 0.4384 0.0000
vt 0.2086 0.7833 0.0000
vt 0.2091 0.7424 0.0000
vt 0.0178 0.5883 0.0000
vt 0.0588 0.5887 0.0000
vt 0.5944 0.7875 0.0000
vt 0.6353 0.7880 0.0000
vt 0.7855 0.9417 0.0000
vt 0.7851 0.9826 0.0000
vt 0.7894 0.5968 0.0000
vt 0.7889 0.6377 0.0000
vt 0.9801 0.7919 0.0000
vt 0.9392 0.7914 0.0000
vt 0.7937 0.2109 0.0000
vt 0.7527 0.2105 0.0000
vt 0.6024 0.0569 0.0000
vt 0.6029 0.0159 0.0000
vt 0.5991 0.3608 0.0000
vt 0.4488 0.2072 0.0000
vt 0.7485 0.5963 0.0000
vt 0.5982 0.4427 0.0000
vt 0.5948 0.7466 0.0000
vt 0.4445 0.5930 0.0000
vt 0.3669 0.2063 0.0000
vt 0.2166 0.0526 0.0000
vt 0.2171 0.0117 0.0000
vt 0.2133 0.3566 0.0000
vt 0.0221 0.2025 0.0000
vt 0.0630 0.2029 0.0000
# 62 texture coords

o pCube1
g pCube1
usemtl initialShadingGroup
s off
f 1/1/1 2/2/1 3/3/1 4/4/1 
f 5/5/2 6/6/2 7/7/2 8/8/2 
f 9/9/3 10/10/3 11/11/3 12/12/3 
f 13/13/4 14/14/4 15/15/4 16/16/4 
f 17/17/5 18/18/5 19/19/5 20/20/5 
f 21/21/6 22/22/6 23/23/6 24/24/6 
f 25/25/1 26/26/1 27/27/1 28/28/1 
f 29/29/1 30/30/1 26/26/1 25/25/1 
f 31/31/1 32/32/1 30/30/1 29/29/1 
f 28/28/7 27/27/7 32/32/7 31/31/7 
s 1
f 29/29/2 33/33/2 34/34/8 31/31/8 
f 35/35/9 36/36/9 33/33/2 29/29/2 
f 37/37/10 38/38/10 36/36/9 35/35/9 
f 31/31/8 34/34/8 38/38/10 37/37/10 
s 3
f 35/39/3 39/40/3 40/41/11 37/42/11 
f 41/43/3 42/44/3 39/40/3 35/39/3 
f 43/45/11 44/46/11 42/44/3 41/43/3 
f 37/42/11 40/41/11 44/46/11 43/45/11 
s 4
f 41/47/12 45/48/12 46/49/13 43/50/13 
f 25/25/4 47/51/4 45/48/12 41/47/12 
f 28/28/14 48/52/14 47/51/4 25/25/4 
f 43/50/13 46/49/13 48/52/14 28/28/14 
s 5
f 41/43/15 49/53/15 50/54/16 25/25/16 
f 35/39/17 51/55/17 49/53/15 41/43/15 
f 29/29/5 52/56/5 51/55/17 35/39/17 
f 25/25/16 50/54/16 52/56/5 29/29/5 
s 6
f 28/28/18 53/57/18 54/58/19 43/59/19 
f 31/31/6 55/60/6 53/57/18 28/28/18 
f 37/61/20 56/62/20 55/60/6 31/31/6 
f 43/59/19 54/58/19 56/62/20 37/61/20 
s off
f 26/26/2 1/1/2 4/4/2 27/27/2 
f 30/30/6 2/2/6 1/1/6 26/26/6 
f 32/32/4 3/3/4 2/2/4 30/30/4 
f 27/27/5 4/4/5 3/3/5 32/32/5 
f 33/33/3 5/5/3 8/8/3 34/34/3 
f 36/36/6 6/6/6 5/5/6 33/33/6 
f 38/38/1 7/7/1 6/6/1 36/36/1 
f 34/34/5 8/8/5 7/7/5 38/38/5 
f 39/40/12 9/9/12 12/12/12 40/41/12 
f 42/44/20 10/10/20 9/9/20 39/40/20 
f 44/46/9 11/11/9 10/10/9 42/44/9 
f 40/41/17 12/12/17 11/11/17 44/46/17 
f 45/48/21 13/13/21 16/16/21 46/49/21 
f 47/51/18 14/14/18 13/13/18 45/48/18 
f 48/52/22 15/15/22 14/14/22 47/51/22 
f 46/49/16 16/16/16 15/15/16 48/52/16 
f 49/53/2 17/17/2 20/20/2 50/54/2 
f 51/55/1 18/18/1 17/17/1 49/53/1 
f 52/56/4 19/19/4 18/18/4 51/55/4 
f 50/54/3 20/20/3 19/19/3 52/56/3 
f 53/57/8 21/21/8 24/24/8 54/58/8 
f 55/60/11 22/22/11 21/21/11 53/57/11 
f 56/62/14 23/23/14 22/22/14 55/60/14 
f 54/58/7 24/24/7 23/23/7 56/62/7 
# 54 polygons

