# 3ds Max Wavefront OBJ Exporter v0.97b - (c)2007 guruware
# File Created: 12.12.2018 22:36:39

mtllib campana.mtl

#
# object pCone1
#

v  0.2566 -2.8165 3.1294
v  -0.7978 -2.8165 1.3031
v  0.2566 -2.8165 -0.5232
v  2.3654 -2.8165 -0.5232
v  3.4198 -2.8165 1.3031
v  2.3654 -2.8165 3.1294
v  -5.6011 -0.2286 -10.6691
v  -4.6487 1.8441 -9.0195
v  7.2708 1.8441 -9.0195
v  8.2232 -0.2286 -10.6691
v  -12.5133 -0.2286 1.3031
v  -10.6084 1.8441 1.3031
v  -5.6011 -0.2286 13.2753
v  -4.6487 1.8441 11.6257
v  8.2232 -0.2286 13.2753
v  7.2707 1.8441 11.6257
v  15.1353 -0.2286 1.3031
v  13.2305 1.8441 1.3031
v  -4.3849 2.0145 -8.5625
v  -2.2038 8.9709 -4.7848
v  4.8259 8.9709 -4.7848
v  7.0069 2.0145 -8.5625
v  -10.0807 2.0145 1.3031
v  -5.7187 8.9709 1.3031
v  -4.3849 2.0145 11.1687
v  -2.2038 8.9709 7.3910
v  7.0069 2.0145 11.1687
v  4.8259 8.9709 7.3910
v  12.7028 2.0145 1.3031
v  8.3407 8.9709 1.3031
v  -2.6419 9.4475 -5.5435
v  -2.0905 10.6475 -4.5885
v  4.7125 10.6475 -4.5885
v  5.2639 9.4475 -5.5435
v  -6.5948 9.4475 1.3031
v  -5.4920 10.6475 1.3031
v  -2.6419 9.4475 8.1497
v  -2.0905 10.6475 7.1946
v  5.2639 9.4475 8.1497
v  4.7125 10.6475 7.1946
v  9.2168 9.4475 1.3031
v  8.1140 10.6475 1.3031
v  -1.6524 10.8499 -3.8298
v  -0.3256 13.0584 -1.5316
v  2.9476 13.0584 -1.5316
v  4.2745 10.8499 -3.8298
v  -4.6159 10.8499 1.3031
v  -1.9622 13.0584 1.3031
v  -1.6524 10.8499 6.4359
v  -0.3256 13.0584 4.1378
v  4.2745 10.8499 6.4359
v  2.9476 13.0584 4.1378
v  7.2379 10.8499 1.3031
v  4.5843 13.0584 1.3031
v  -5.3373 -0.5157 -10.2121
v  7.9593 -0.5157 -10.2121
v  -11.9856 -0.5157 1.3031
v  -5.3373 -0.5157 12.8183
v  7.9593 -0.5157 12.8183
v  14.6076 -0.5157 1.3031
v  3.0127 12.9411 1.3031
v  2.1618 12.9411 -0.1706
v  2.1618 12.9411 2.7768
v  0.4602 12.9411 2.7768
v  -0.3907 12.9411 1.3031
v  0.4602 12.9411 -0.1706
v  3.5778 0.8160 5.2292
v  5.8445 0.8160 1.3031
v  -0.9558 0.8160 5.2292
v  -3.2225 0.8160 1.3031
v  3.5778 0.8206 -2.6231
v  -0.9558 0.8206 -2.6231
v  -0.6385 13.4122 -2.0735
v  -0.4662 13.7872 -1.7751
v  3.0882 13.7872 -1.7751
v  3.2605 13.4122 -2.0735
v  -2.5880 13.4122 1.3031
v  -2.2434 13.7872 1.3031
v  -0.6385 13.4122 4.6797
v  -0.4662 13.7872 4.3813
v  3.2605 13.4122 4.6797
v  3.0882 13.7872 4.3813
v  5.2100 13.4122 1.3031
v  4.8654 13.7872 1.3031
v  2.7753 14.0418 -1.2332
v  -0.1533 14.0418 -1.2332
v  -1.6176 14.0418 1.3031
v  -0.1533 14.0418 3.8393
v  2.7753 14.0418 3.8393
v  4.2396 14.0418 1.3031
v  1.0270 34.4363 1.7950
v  1.5950 34.4363 1.7950
v  1.8790 34.4363 1.3031
v  1.5950 34.4363 0.8112
v  1.0270 34.4363 0.8112
v  0.7430 34.4363 1.3031
v  -0.5765 15.2731 -1.9662
v  3.1985 15.2731 -1.9662
v  -2.4640 15.2731 1.3031
v  -0.5765 15.2731 4.5724
v  3.1985 15.2731 4.5724
v  5.0861 15.2731 1.3031
v  0.3278 16.7714 -0.3999
v  2.2942 16.7714 -0.3999
v  -0.6554 16.7714 1.3031
v  0.3278 16.7714 3.0061
v  2.2942 16.7714 3.0061
v  3.2775 16.7714 1.3031
v  -0.1684 17.9400 -1.2594
v  2.7905 17.9400 -1.2594
v  -1.6479 17.9400 1.3031
v  -0.1684 17.9400 3.8656
v  2.7905 17.9400 3.8656
v  4.2699 17.9400 1.3031
v  0.6944 33.4602 0.2351
v  1.9276 33.4602 0.2351
v  0.0778 33.4602 1.3031
v  0.6944 33.4602 2.3711
v  1.9276 33.4602 2.3711
v  2.5442 33.4602 1.3031
# 120 vertices

vn 0.0000 -1.0000 0.0000
vn 0.0000 0.6227 -0.7824
vn -0.6776 0.6227 -0.3912
vn -0.6776 0.6227 0.3912
vn 0.0000 0.6227 0.7824
vn 0.6776 0.6227 0.3912
vn 0.6776 0.6227 -0.3912
vn 0.0000 0.4772 -0.8788
vn -0.7610 0.4772 -0.4394
vn -0.7610 0.4772 0.4394
vn 0.0000 0.4772 0.8788
vn 0.7610 0.4772 0.4394
vn 0.7610 0.4772 -0.4394
vn -0.0000 0.6227 0.7824
vn 0.0000 0.7210 -0.6929
vn -0.6001 0.7210 -0.3465
vn -0.6001 0.7210 0.3465
vn 0.0000 0.7210 0.6929
vn 0.6001 0.7210 0.3465
vn 0.6001 0.7210 -0.3465
vn 0.0000 -0.8468 -0.5320
vn 0.0000 0.9369 -0.3495
vn -0.4607 -0.8468 -0.2660
vn -0.3026 0.9369 -0.1747
vn -0.4607 -0.8468 0.2660
vn -0.3026 0.9369 0.1747
vn 0.0000 -0.8468 0.5320
vn 0.0000 0.9369 0.3495
vn 0.4607 -0.8468 0.2660
vn 0.3026 0.9369 0.1747
vn 0.4607 -0.8468 -0.2660
vn 0.3026 0.9369 -0.1747
vn -0.0000 0.9662 -0.2577
vn -0.2231 0.9662 -0.1288
vn -0.2231 0.9662 0.1288
vn -0.0000 -0.8468 0.5320
vn 0.0000 0.9662 0.2577
vn 0.2231 0.9662 0.1288
vn 0.2231 0.9662 -0.1288
vn -0.5610 -0.7618 0.3239
vn -0.5610 -0.7618 -0.3239
vn 0.0000 -0.7618 -0.6478
vn 0.5610 -0.7618 -0.3239
vn 0.5610 -0.7618 0.3239
vn -0.0000 -0.7618 0.6478
vn 0.8488 0.1987 0.4900
vn 0.8652 -0.0443 0.4995
vn 0.0000 0.1987 0.9801
vn 0.0000 -0.0443 0.9990
vn -0.8488 0.1987 0.4900
vn -0.8652 -0.0443 0.4995
vn 0.0000 0.1989 -0.9800
vn 0.0000 -0.0717 -0.9974
vn 0.7498 -0.5005 0.4329
vn 0.0000 -0.5005 0.8658
vn -0.7498 -0.5005 0.4329
vn -0.8655 -0.0346 -0.4996
vn -0.7498 -0.5005 -0.4329
vn -0.8652 -0.0443 -0.4994
vn 0.0000 -0.8374 -0.5466
vn 0.0000 0.9051 -0.4252
vn -0.4734 -0.8374 -0.2733
vn -0.3682 0.9051 -0.2126
vn -0.4734 -0.8374 0.2733
vn -0.3682 0.9051 0.2126
vn -0.0000 -0.8374 0.5466
vn -0.0000 0.9051 0.4252
vn 0.4734 -0.8374 0.2733
vn 0.3682 0.9051 0.2126
vn 0.4734 -0.8374 -0.2733
vn 0.3682 0.9051 -0.2126
vn 0.0000 1.0000 0.0000
vn 0.0000 -0.5115 -0.8593
vn -0.7441 -0.5115 -0.4296
vn -0.7441 -0.5115 0.4296
vn 0.0000 -0.5115 0.8593
vn 0.7441 -0.5115 0.4296
vn 0.7441 -0.5115 -0.4296
vn 0.0000 0.7226 -0.6912
vn -0.5986 0.7226 -0.3456
vn -0.5986 0.7226 0.3456
vn 0.0000 0.7226 0.6912
vn 0.5986 0.7226 0.3456
vn 0.5986 0.7226 -0.3456
vn 0.0000 -0.5925 -0.8056
vn -0.6977 -0.5925 -0.4028
vn -0.6977 -0.5925 0.4028
vn 0.0000 -0.5925 0.8056
vn 0.6977 -0.5925 0.4028
vn 0.6977 -0.5925 -0.4028
vn 0.0000 0.0958 -0.9954
vn 0.0000 0.1065 -0.9943
vn -0.8620 0.0958 -0.4977
vn -0.8611 0.1065 -0.4972
vn -0.8620 0.0958 0.4977
vn -0.8611 0.1065 0.4972
vn 0.0000 0.0958 0.9954
vn 0.0000 0.1065 0.9943
vn 0.8620 0.0958 0.4977
vn 0.8611 0.1065 0.4972
vn 0.8620 0.0958 -0.4977
vn 0.8611 0.1065 -0.4972
vn 0.0000 0.5083 -0.8612
vn -0.7458 0.5083 -0.4306
vn -0.7458 0.5083 0.4306
vn 0.0000 0.5083 0.8612
vn 0.7458 0.5083 0.4306
vn 0.7458 0.5083 -0.4306
vn -0.4157 -0.5548 -0.7207
vn -0.4158 -0.5548 -0.7206
vn -0.7497 -0.5002 -0.4332
vn 0.4158 -0.5548 -0.7206
vn 0.6480 -0.2942 -0.7026
vn 0.8489 0.1983 -0.4899
vn 0.8576 -0.1389 -0.4952
vn 0.7497 -0.5002 -0.4332
# 116 vertex normals

vt 0.5296 0.8412 0.0000
vt 0.5093 0.8601 0.0000
vt 0.4827 0.8520 0.0000
vt 0.4753 0.8260 0.0000
vt 0.4980 0.8049 0.0000
vt 0.5234 0.8141 0.0000
vt 0.4243 0.3572 0.0000
vt 0.4622 0.3613 0.0000
vt 0.4821 0.5175 0.0000
vt 0.4488 0.5316 0.0000
vt 0.4841 0.1916 0.0000
vt 0.5153 0.2133 0.0000
vt 0.6170 0.0756 0.0000
vt 0.6337 0.1096 0.0000
vt 0.7894 0.0361 0.0000
vt 0.7869 0.0735 0.0000
vt 0.9604 0.0914 0.0000
vt 0.9369 0.1202 0.0000
vt 0.5719 0.6467 0.0000
vt 0.5491 0.6800 0.0000
vt 0.4703 0.3621 0.0000
vt 0.5773 0.3749 0.0000
vt 0.5882 0.4743 0.0000
vt 0.4882 0.5134 0.0000
vt 0.5227 0.2188 0.0000
vt 0.6124 0.2808 0.0000
vt 0.6370 0.1174 0.0000
vt 0.6866 0.2135 0.0000
vt 0.7853 0.0815 0.0000
vt 0.7828 0.1890 0.0000
vt 0.9303 0.1241 0.0000
vt 0.8746 0.2156 0.0000
vt 0.6439 0.5522 0.0000
vt 0.5753 0.6369 0.0000
vt 0.5864 0.3761 0.0000
vt 0.6082 0.3786 0.0000
vt 0.6148 0.4640 0.0000
vt 0.5960 0.4723 0.0000
vt 0.6203 0.2866 0.0000
vt 0.6390 0.2995 0.0000
vt 0.6907 0.2217 0.0000
vt 0.7007 0.2414 0.0000
vt 0.7839 0.1968 0.0000
vt 0.7828 0.2172 0.0000
vt 0.8794 0.2291 0.0000
vt 0.8660 0.2460 0.0000
vt 0.6704 0.5323 0.0000
vt 0.6587 0.5513 0.0000
vt 0.6222 0.3794 0.0000
vt 0.6698 0.3856 0.0000
vt 0.6678 0.4379 0.0000
vt 0.6254 0.4568 0.0000
vt 0.6513 0.3081 0.0000
vt 0.6917 0.3357 0.0000
vt 0.7065 0.2545 0.0000
vt 0.7297 0.2968 0.0000
vt 0.7799 0.2297 0.0000
vt 0.7775 0.2759 0.0000
vt 0.8541 0.2523 0.0000
vt 0.8276 0.2823 0.0000
vt 0.6895 0.4787 0.0000
vt 0.6726 0.5184 0.0000
vt 0.4181 0.3565 0.0000
vt 0.4448 0.5336 0.0000
vt 0.4791 0.1880 0.0000
vt 0.6144 0.0700 0.0000
vt 0.7898 0.0302 0.0000
vt 0.9593 0.0835 0.0000
vt 0.5377 0.6822 0.0000
vt 0.3054 0.7146 0.0000
vt 0.2966 0.7150 0.0000
vt 0.0142 0.8618 0.0000
vt 0.2322 0.7734 0.0000
vt 0.2299 0.7856 0.0000
vt 0.1278 0.9925 0.0000
vt 0.0140 0.6878 0.0000
vt 0.2412 0.7547 0.0000
vt 0.1151 0.5458 0.0000
vt 0.2588 0.7348 0.0000
vt 0.2783 0.4843 0.0000
vt 0.2795 0.7206 0.0000
vt 0.3055 0.9173 0.0000
vt 0.2635 0.9493 0.0000
vt 0.3420 0.8855 0.0000
vt 0.3757 0.8538 0.0000
vt 0.4407 0.7854 0.0000
vt 0.4089 0.8215 0.0000
vt 0.3462 0.9522 0.0000
vt 0.3227 0.9769 0.0000
vt 0.3797 0.9244 0.0000
vt 0.4139 0.8930 0.0000
vt 0.6798 0.3870 0.0000
vt 0.6879 0.3893 0.0000
vt 0.6801 0.4349 0.0000
vt 0.6742 0.4354 0.0000
vt 0.7008 0.3420 0.0000
vt 0.7084 0.3472 0.0000
vt 0.7346 0.3057 0.0000
vt 0.7397 0.3124 0.0000
vt 0.7775 0.2826 0.0000
vt 0.7791 0.2882 0.0000
vt 0.8257 0.2842 0.0000
vt 0.8256 0.2857 0.0000
vt 0.6907 0.4782 0.0000
vt 0.6901 0.4784 0.0000
vt 0.6877 0.4358 0.0000
vt 0.6973 0.3928 0.0000
vt 0.7174 0.3533 0.0000
vt 0.7464 0.3199 0.0000
vt 0.7827 0.2948 0.0000
vt 0.8277 0.2866 0.0000
vt 0.6916 0.4788 0.0000
vt 0.9646 0.5446 0.0000
vt 0.9579 0.5479 0.0000
vt 0.9516 0.5440 0.0000
vt 0.9522 0.5360 0.0000
vt 0.9589 0.5330 0.0000
vt 0.9651 0.5372 0.0000
vt 0.7152 0.4002 0.0000
vt 0.7040 0.4394 0.0000
vt 0.7341 0.3646 0.0000
vt 0.7600 0.3337 0.0000
vt 0.7919 0.3085 0.0000
vt 0.8341 0.2916 0.0000
vt 0.7039 0.4848 0.0000
vt 0.7436 0.4128 0.0000
vt 0.7326 0.4450 0.0000
vt 0.7603 0.3823 0.0000
vt 0.7823 0.3553 0.0000
vt 0.8079 0.3329 0.0000
vt 0.8326 0.3172 0.0000
vt 0.7273 0.4739 0.0000
vt 0.7612 0.4217 0.0000
vt 0.7495 0.4527 0.0000
vt 0.7771 0.3935 0.0000
vt 0.7971 0.3682 0.0000
vt 0.8213 0.3456 0.0000
vt 0.8491 0.3220 0.0000
vt 0.7382 0.4873 0.0000
vt 0.9421 0.5203 0.0000
vt 0.9374 0.5338 0.0000
vt 0.9487 0.5081 0.0000
vt 0.9575 0.4975 0.0000
vt 0.9682 0.4880 0.0000
vt 0.9813 0.4802 0.0000
vt 0.9352 0.5489 0.0000
vt 0.9559 0.5262 0.0000
vt 0.9614 0.5167 0.0000
vt 0.9682 0.5081 0.0000
vt 0.9759 0.5009 0.0000
vt 0.9836 0.4970 0.0000
vt 0.4467 0.8597 0.0000
vt 0.4722 0.7436 0.0000
# 153 texture coords

o pCone1
g pCone1
usemtl initialShadingGroup
s off
f 1/1/1 2/2/1 3/3/1 4/4/1 5/5/1 6/6/1 
f 7/7/2 8/8/2 9/9/2 10/10/2 
f 11/11/3 12/12/3 8/8/3 7/7/3 
f 13/13/4 14/14/4 12/12/4 11/11/4 
f 15/15/5 16/16/5 14/14/5 13/13/5 
f 17/17/6 18/18/6 16/16/6 15/15/6 
f 10/10/7 9/9/7 18/19/7 17/20/7 
f 19/21/8 20/22/8 21/23/8 22/24/8 
f 23/25/9 24/26/9 20/22/9 19/21/9 
f 25/27/10 26/28/10 24/26/10 23/25/10 
f 27/29/11 28/30/11 26/28/11 25/27/11 
f 29/31/12 30/32/12 28/30/12 27/29/12 
f 22/24/13 21/23/13 30/33/13 29/34/13 
f 31/35/2 32/36/2 33/37/2 34/38/2 
f 35/39/3 36/40/3 32/36/3 31/35/3 
f 37/41/4 38/42/4 36/40/4 35/39/4 
f 39/43/14 40/44/14 38/42/14 37/41/14 
f 41/45/6 42/46/6 40/44/6 39/43/6 
f 34/38/7 33/37/7 42/47/7 41/48/7 
f 43/49/15 44/50/15 45/51/15 46/52/15 
f 47/53/16 48/54/16 44/50/16 43/49/16 
f 49/55/17 50/56/17 48/54/17 47/53/17 
f 51/57/18 52/58/18 50/56/18 49/55/18 
f 53/59/19 54/60/19 52/58/19 51/57/19 
f 46/52/20 45/51/20 54/61/20 53/62/20 
f 55/63/21 7/7/21 10/10/21 56/64/21 
f 22/24/22 9/9/22 8/8/22 19/21/22 
f 57/65/23 11/11/23 7/7/23 55/63/23 
f 19/21/24 8/8/24 12/12/24 23/25/24 
f 58/66/25 13/13/25 11/11/25 57/65/25 
f 23/25/26 12/12/26 14/14/26 25/27/26 
f 59/67/27 15/15/27 13/13/27 58/66/27 
f 25/27/28 14/14/28 16/16/28 27/29/28 
f 60/68/29 17/17/29 15/15/29 59/67/29 
f 27/29/30 16/16/30 18/18/30 29/31/30 
f 56/64/31 10/10/31 17/20/31 60/69/31 
f 29/34/32 18/19/32 9/9/32 22/24/32 
f 20/22/21 31/35/21 34/38/21 21/23/21 
f 46/52/33 33/37/33 32/36/33 43/49/33 
f 24/26/23 35/39/23 31/35/23 20/22/23 
f 43/49/34 32/36/34 36/40/34 47/53/34 
f 26/28/25 37/41/25 35/39/25 24/26/25 
f 47/53/35 36/40/35 38/42/35 49/55/35 
f 28/30/36 39/43/36 37/41/36 26/28/36 
f 49/55/37 38/42/37 40/44/37 51/57/37 
f 30/32/29 41/45/29 39/43/29 28/30/29 
f 51/57/38 40/44/38 42/46/38 53/59/38 
f 21/23/31 34/38/31 41/48/31 30/33/31 
f 53/62/39 42/47/39 33/37/39 46/52/39 
f 60/69/40 61/70/40 62/71/40 56/64/40 
f 59/72/41 63/73/41 61/74/41 60/75/41 
f 58/76/42 64/77/42 63/73/42 59/72/42 
f 57/78/43 65/79/43 64/77/43 58/76/43 
f 55/80/44 66/81/44 65/79/44 57/78/44 
f 56/64/45 62/71/45 66/81/45 55/80/45 
s 2
f 63/73/46 67/82/47 68/83/47 61/74/46 
s 3
f 64/77/48 69/84/49 67/82/49 63/73/48 
s 4
f 65/79/50 70/85/51 69/84/51 64/77/50 
s 6
f 62/71/52 71/86/53 72/87/53 66/81/52 
s 2
f 67/82/47 6/88/54 5/89/54 68/83/47 
s 3
f 69/84/49 1/90/55 6/88/55 67/82/49 
s 4
f 70/85/51 2/91/56 1/90/56 69/84/51 
s 7
f 70/85/57 65/79/58 66/81/58 72/87/59 
s off
f 73/92/2 74/93/2 75/94/2 76/95/2 
f 77/96/3 78/97/3 74/93/3 73/92/3 
f 79/98/4 80/99/4 78/97/4 77/96/4 
f 81/100/14 82/101/14 80/99/14 79/98/14 
f 83/102/6 84/103/6 82/101/6 81/100/6 
f 76/95/7 75/94/7 84/104/7 83/105/7 
f 44/50/60 73/92/60 76/95/60 45/51/60 
f 85/106/61 75/94/61 74/93/61 86/107/61 
f 48/54/62 77/96/62 73/92/62 44/50/62 
f 86/107/63 74/93/63 78/97/63 87/108/63 
f 50/56/64 79/98/64 77/96/64 48/54/64 
f 87/108/65 78/97/65 80/99/65 88/109/65 
f 52/58/66 81/100/66 79/98/66 50/56/66 
f 88/109/67 80/99/67 82/101/67 89/110/67 
f 54/60/68 83/102/68 81/100/68 52/58/68 
f 89/110/69 82/101/69 84/103/69 90/111/69 
f 45/51/70 76/95/70 83/105/70 54/61/70 
f 90/112/71 84/104/71 75/94/71 85/106/71 
f 91/113/72 92/114/72 93/115/72 94/116/72 95/117/72 96/118/72 
f 86/107/73 97/119/73 98/120/73 85/106/73 
f 87/108/74 99/121/74 97/119/74 86/107/74 
f 88/109/75 100/122/75 99/121/75 87/108/75 
f 89/110/76 101/123/76 100/122/76 88/109/76 
f 90/111/77 102/124/77 101/123/77 89/110/77 
f 85/106/78 98/120/78 102/125/78 90/112/78 
f 97/119/79 103/126/79 104/127/79 98/120/79 
f 99/121/80 105/128/80 103/126/80 97/119/80 
f 100/122/81 106/129/81 105/128/81 99/121/81 
f 101/123/82 107/130/82 106/129/82 100/122/82 
f 102/124/83 108/131/83 107/130/83 101/123/83 
f 98/120/84 104/127/84 108/132/84 102/125/84 
f 103/126/85 109/133/85 110/134/85 104/127/85 
f 105/128/86 111/135/86 109/133/86 103/126/86 
f 106/129/87 112/136/87 111/135/87 105/128/87 
f 107/130/88 113/137/88 112/136/88 106/129/88 
f 108/131/89 114/138/89 113/137/89 107/130/89 
f 104/127/90 110/134/90 114/139/90 108/132/90 
s 7
f 109/133/91 115/140/92 116/141/92 110/134/91 
s 8
f 111/135/93 117/142/94 115/140/94 109/133/93 
s 9
f 112/136/95 118/143/96 117/142/96 111/135/95 
s 10
f 113/137/97 119/144/98 118/143/98 112/136/97 
s 11
f 114/138/99 120/145/100 119/144/100 113/137/99 
s 12
f 110/134/101 116/141/102 120/146/102 114/139/101 
s 7
f 115/140/92 95/147/103 94/116/103 116/141/92 
s 8
f 117/142/94 96/148/104 95/147/104 115/140/94 
s 9
f 118/143/96 91/149/105 96/148/105 117/142/96 
s 10
f 119/144/98 92/150/106 91/149/106 118/143/98 
s 11
f 120/145/100 93/151/107 92/150/107 119/144/100 
s 12
f 116/141/102 94/116/108 93/115/108 120/146/102 
s 7
f 72/87/109 3/152/110 2/91/111 70/85/111 
f 4/4/112 3/152/110 72/87/109 71/86/113 
f 71/86/113 62/71/114 61/70/114 68/153/115 
f 71/86/113 68/153/115 5/5/116 4/4/112 
# 116 polygons

