# 3ds Max Wavefront OBJ Exporter v0.97b - (c)2007 guruware
# File Created: 12.12.2018 22:38:44

mtllib Cuchillo.mtl

#
# object Box001
#

v  -10.7768 5.2034 12.1688
v  -13.9241 0.0000 -9.2758
v  -0.1475 0.0000 -9.2758
v  -3.2949 5.2034 12.1688
v  -8.2209 304.2202 16.3350
v  -5.8508 304.2202 16.3350
v  -5.8508 343.5598 -24.9353
v  -8.2209 343.5598 -24.9353
v  -3.2949 21.1879 20.8918
v  -3.2949 65.1268 19.0310
v  -10.7768 65.1268 19.0310
v  -10.7768 21.1879 20.8918
v  -0.1475 16.9928 -9.2758
v  -0.1475 65.1268 -9.2758
v  -13.9241 16.9928 -9.2758
v  -13.9241 65.1268 -9.2758
v  -0.1475 90.5360 23.6285
v  -13.9241 90.5360 23.6285
v  -0.1475 90.5360 -9.2758
v  -13.9241 90.5360 -9.2758
v  -0.1475 92.6503 23.6285
v  -13.9241 92.6503 23.6285
v  -0.1475 92.6503 -9.2758
v  -13.9241 92.6503 -9.2758
v  8.3464 95.3074 43.2016
v  -22.4181 95.3074 43.2016
v  8.3464 95.3074 -28.8488
v  -22.4181 95.3074 -28.8488
v  8.3464 103.4232 43.2016
v  -22.4181 103.4232 43.2016
v  8.3464 103.4232 -28.8488
v  -22.4181 103.4232 -28.8488
v  2.4304 103.4232 31.1436
v  -16.5020 103.4232 31.1436
v  2.4304 103.4232 -16.7909
v  -16.5020 103.4232 -16.7909
v  -3.5433 138.7525 21.4186
v  -3.7972 150.5862 31.1436
v  -10.2745 150.5862 31.1436
v  -10.5283 138.7525 21.4186
v  2.4304 138.7525 -16.7909
v  2.4304 150.5862 -16.7909
v  -16.5020 138.7525 -16.7909
v  -16.5020 150.5862 -16.7909
v  -5.8508 279.4009 31.1436
v  -8.2209 279.4009 31.1436
v  -1.6452 279.4009 -16.7909
v  -12.4265 279.4009 -16.7909
v  -4.7852 174.2536 31.1436
v  -9.2864 174.2536 31.1436
v  -4.2963 162.4199 21.4186
v  -9.7753 162.4199 21.4186
v  -11.4929 108.7876 31.1436
v  -2.5787 108.7876 31.1436
v  -11.4929 115.0851 21.4186
v  -2.5787 115.0851 21.4186
v  -10.9184 126.9188 31.1436
v  -3.1532 126.9188 31.1436
v  2.4304 174.2536 -16.7909
v  2.4304 162.4199 -16.7909
v  2.4304 108.7876 -16.7909
v  2.4304 115.0851 -16.7909
v  2.4304 126.9188 -16.7909
v  -16.5020 174.2536 -16.7909
v  -16.5020 162.4199 -16.7909
v  -16.5020 108.8459 -16.7909
v  -16.5020 115.0851 -16.7909
v  -16.5020 126.9188 -16.7909
# 68 vertices

vn -0.5687 -0.6875 0.4516
vn -0.6018 -0.6218 -0.5011
vn 0.6018 -0.6218 -0.5011
vn 0.5687 -0.6875 0.4516
vn -0.6773 0.5409 0.4987
vn 0.6773 0.5409 0.4987
vn 0.5286 0.7178 -0.4531
vn -0.5286 0.7178 -0.4531
vn 0.6097 -0.2255 0.7599
vn 0.6891 -0.1199 0.7147
vn -0.6891 -0.1199 0.7147
vn -0.6096 -0.2255 0.7600
vn 0.7358 0.0000 -0.6772
vn 0.7376 0.0000 -0.6752
vn -0.7358 0.0000 -0.6772
vn -0.7376 0.0000 -0.6752
vn 0.6918 -0.1261 0.7110
vn -0.6918 -0.1261 0.7110
vn 0.7071 0.0000 -0.7071
vn -0.7071 0.0000 -0.7071
vn 0.4302 -0.8428 0.3233
vn -0.4302 -0.8428 0.3233
vn 0.4302 -0.8428 -0.3233
vn -0.4302 -0.8428 -0.3233
vn 0.5856 -0.5504 0.5951
vn -0.5856 -0.5504 0.5951
vn 0.5856 -0.5504 -0.5951
vn -0.5856 -0.5504 -0.5951
vn 0.5774 0.5774 0.5774
vn -0.5774 0.5774 0.5774
vn 0.5774 0.5774 -0.5774
vn -0.5774 0.5774 -0.5774
vn 0.1833 0.9745 0.1293
vn -0.1833 0.9745 0.1293
vn 0.3015 0.9045 -0.3015
vn -0.3015 0.9045 -0.3015
vn 0.8698 0.0306 0.4924
vn 0.5449 0.0060 0.8385
vn -0.5449 0.0060 0.8385
vn -0.8698 0.0306 0.4924
vn 0.7494 0.0000 -0.6621
vn 0.7426 0.0000 -0.6697
vn -0.7494 0.0000 -0.6621
vn -0.7426 0.0000 -0.6697
vn 0.6134 0.2667 0.7434
vn -0.6134 0.2667 0.7434
vn 0.7552 -0.0106 -0.6554
vn -0.7552 -0.0106 -0.6554
vn 0.5863 -0.3205 0.7440
vn -0.5863 -0.3205 0.7440
vn 0.8630 0.0465 0.5031
vn -0.8630 0.0465 0.5031
vn -0.3437 0.5934 0.7278
vn 0.3439 0.5934 0.7277
vn -0.9077 0.1259 0.4003
vn 0.9077 0.1259 0.4003
vn -0.5446 0.0077 0.8387
vn 0.5446 0.0077 0.8387
vn 0.7522 0.0159 -0.6587
vn 0.7545 0.0000 -0.6563
vn 0.7358 0.0000 -0.6771
vn 0.7429 0.0000 -0.6694
vn 0.7390 0.0000 -0.6737
vn -0.7522 0.0159 -0.6587
vn -0.7545 0.0000 -0.6563
vn -0.7358 0.0000 -0.6771
vn -0.7429 0.0000 -0.6694
vn -0.7390 0.0000 -0.6737
# 68 vertex normals

vt 0.7397 0.1679 0.0000
vt 0.8164 0.1321 0.0000
vt 0.8344 0.1823 0.0000
vt 0.7495 0.1952 0.0000
vt 0.4886 0.8144 0.0000
vt 0.4943 0.8144 0.0000
vt 0.4948 0.9888 0.0000
vt 0.4891 0.9889 0.0000
vt 0.9806 0.2910 0.0000
vt 0.9778 0.4305 0.0000
vt 0.9519 0.4299 0.0000
vt 0.9546 0.2905 0.0000
vt 0.7696 0.2812 0.0000
vt 0.7665 0.4346 0.0000
vt 0.6676 0.4314 0.0000
vt 0.6640 0.2911 0.0000
vt 0.6145 0.2875 0.0000
vt 0.6145 0.4396 0.0000
vt 0.5668 0.4396 0.0000
vt 0.5668 0.2875 0.0000
vt 0.9072 0.2921 0.0000
vt 0.9007 0.4322 0.0000
vt 0.8018 0.4322 0.0000
vt 0.8018 0.2787 0.0000
vt 0.9871 0.5136 0.0000
vt 0.9393 0.5127 0.0000
vt 0.9559 0.2272 0.0000
vt 0.9818 0.2277 0.0000
vt 0.7648 0.5155 0.0000
vt 0.6503 0.5127 0.0000
vt 0.6953 0.2411 0.0000
vt 0.7707 0.2270 0.0000
vt 0.6145 0.5199 0.0000
vt 0.5668 0.5199 0.0000
vt 0.5668 0.2338 0.0000
vt 0.6145 0.2338 0.0000
vt 0.9163 0.5141 0.0000
vt 0.8018 0.5132 0.0000
vt 0.8018 0.2246 0.0000
vt 0.8770 0.2411 0.0000
vt 0.6713 0.5770 0.0000
vt 0.6342 0.5769 0.0000
vt 0.6343 0.5717 0.0000
vt 0.6713 0.5718 0.0000
vt 0.9302 0.5773 0.0000
vt 0.8193 0.5772 0.0000
vt 0.8193 0.5720 0.0000
vt 0.9303 0.5722 0.0000
vt 0.7823 0.5771 0.0000
vt 0.7823 0.5720 0.0000
vt 0.4335 0.0602 0.0000
vt 0.4338 0.1088 0.0000
vt 0.3625 0.1393 0.0000
vt 0.3619 0.0308 0.0000
vt 0.5533 0.1099 0.0000
vt 0.6242 0.1416 0.0000
vt 0.5541 0.0613 0.0000
vt 0.6260 0.0332 0.0000
vt 0.5530 0.0573 0.0000
vt 0.6235 0.0244 0.0000
vt 0.7083 0.8287 0.0000
vt 0.7534 0.7853 0.0000
vt 0.7639 0.7962 0.0000
vt 0.7188 0.8396 0.0000
vt 0.8861 0.6576 0.0000
vt 0.8965 0.6685 0.0000
vt 0.9312 0.6142 0.0000
vt 0.9417 0.6251 0.0000
vt 0.5756 0.9564 0.0000
vt 0.5861 0.9672 0.0000
vt 0.0372 0.1417 0.0000
vt 0.0373 0.0237 0.0000
vt 0.0821 0.0465 0.0000
vt 0.0820 0.1191 0.0000
vt 0.3051 0.0242 0.0000
vt 0.2603 0.0468 0.0000
vt 0.3050 0.1421 0.0000
vt 0.2602 0.1194 0.0000
vt 0.5032 0.3330 0.0000
vt 0.5020 0.3781 0.0000
vt 0.4865 0.3778 0.0000
vt 0.4865 0.3327 0.0000
vt 0.2021 0.3177 0.0000
vt 0.2018 0.3563 0.0000
vt 0.0421 0.3546 0.0000
vt 0.0745 0.3162 0.0000
vt 0.5114 0.7639 0.0000
vt 0.5114 0.7341 0.0000
vt 0.5566 0.7343 0.0000
vt 0.5567 0.7642 0.0000
vt 0.4173 0.3233 0.0000
vt 0.4486 0.3632 0.0000
vt 0.2889 0.3571 0.0000
vt 0.2897 0.3186 0.0000
vt 0.4944 0.7334 0.0000
vt 0.4887 0.7333 0.0000
vt 0.1992 0.7764 0.0000
vt 0.2246 0.9864 0.0000
vt 0.0886 0.8566 0.0000
vt 0.0400 0.7753 0.0000
vt 0.5204 0.4090 0.0000
vt 0.5301 0.2447 0.0000
vt 0.5357 0.2447 0.0000
vt 0.5462 0.4092 0.0000
vt 0.4395 0.7838 0.0000
vt 0.3887 0.8627 0.0000
vt 0.2493 0.9858 0.0000
vt 0.2803 0.7771 0.0000
vt 0.4987 0.4681 0.0000
vt 0.4879 0.4680 0.0000
vt 0.5003 0.4231 0.0000
vt 0.4872 0.4229 0.0000
vt 0.4860 0.2052 0.0000
vt 0.4742 0.1914 0.0000
vt 0.5194 0.1923 0.0000
vt 0.5073 0.2056 0.0000
vt 0.4854 0.2425 0.0000
vt 0.5067 0.2429 0.0000
vt 0.4862 0.2876 0.0000
vt 0.5047 0.2880 0.0000
vt 0.2015 0.4334 0.0000
vt 0.0415 0.4325 0.0000
vt 0.2017 0.3948 0.0000
vt 0.0738 0.3940 0.0000
vt 0.0434 0.2172 0.0000
vt 0.0447 0.1923 0.0000
vt 0.2034 0.2026 0.0000
vt 0.2028 0.2200 0.0000
vt 0.0753 0.2386 0.0000
vt 0.2027 0.2406 0.0000
vt 0.0428 0.2768 0.0000
vt 0.2023 0.2791 0.0000
vt 0.5112 0.6743 0.0000
vt 0.5565 0.6746 0.0000
vt 0.5113 0.7042 0.0000
vt 0.5566 0.7045 0.0000
vt 0.5569 0.8398 0.0000
vt 0.5569 0.8534 0.0000
vt 0.5116 0.8531 0.0000
vt 0.5116 0.8394 0.0000
vt 0.5568 0.8239 0.0000
vt 0.5115 0.8236 0.0000
vt 0.5568 0.7941 0.0000
vt 0.5115 0.7938 0.0000
vt 0.4471 0.4412 0.0000
vt 0.2871 0.4342 0.0000
vt 0.4159 0.4011 0.0000
vt 0.2880 0.3957 0.0000
vt 0.2916 0.2211 0.0000
vt 0.2914 0.2034 0.0000
vt 0.4503 0.2009 0.0000
vt 0.4510 0.2259 0.0000
vt 0.2912 0.2414 0.0000
vt 0.4185 0.2457 0.0000
vt 0.2905 0.2800 0.0000
vt 0.4500 0.2854 0.0000
# 156 texture coords

o Box001
g Box001
usemtl wire_177028149
s 1
f 1/1/1 2/2/2 3/3/3 4/4/4 
s 2
f 5/5/5 6/6/6 7/7/7 8/8/8 
s 1
f 9/9/9 10/10/10 11/11/11 12/12/12 
f 13/13/13 14/14/14 10/15/10 9/16/9 
s off
f 15/17/15 16/18/16 14/19/14 13/20/13 
s 1
f 12/21/12 11/22/11 16/23/16 15/24/15 
f 10/10/10 17/25/17 18/26/18 11/11/11 
f 12/12/12 1/27/1 4/28/4 9/9/9 
f 14/14/14 19/29/19 17/30/17 10/15/10 
f 9/16/9 4/31/4 3/32/3 13/13/13 
s off
f 16/18/16 20/33/20 19/34/19 14/19/14 
f 13/20/13 3/35/3 2/36/2 15/17/15 
s 1
f 11/22/11 18/37/18 20/38/20 16/23/16 
f 15/24/15 2/39/2 1/40/1 12/21/12 
s off
f 18/41/18 17/42/17 21/43/21 22/44/22 
f 17/45/17 19/46/19 23/47/23 21/48/21 
f 19/46/19 20/49/20 24/50/24 23/47/23 
f 20/49/20 18/41/18 22/44/22 24/50/24 
s 2
f 22/51/22 21/52/21 25/53/25 26/54/26 
f 21/52/21 23/55/23 27/56/27 25/53/25 
f 23/55/23 24/57/24 28/58/28 27/56/27 
f 24/59/24 22/51/22 26/54/26 28/60/28 
s 1
f 26/61/26 25/62/25 29/63/29 30/64/30 
f 25/62/25 27/65/27 31/66/31 29/63/29 
f 27/65/27 28/67/28 32/68/32 31/66/31 
f 28/69/28 26/61/26 30/64/30 32/70/32 
s 4
f 30/71/30 29/72/29 33/73/33 34/74/34 
f 29/72/29 31/75/31 35/76/35 33/73/33 
f 31/75/31 32/77/32 36/78/36 35/76/35 
f 32/77/32 30/71/30 34/74/34 36/78/36 
s 2
f 37/79/37 38/80/38 39/81/39 40/82/40 
s 1
f 41/83/41 42/84/42 38/85/38 37/86/37 
s 2
f 43/87/43 44/88/44 42/89/42 41/90/41 
s 1
f 40/91/40 39/92/39 44/93/44 43/94/43 
s 2
f 45/95/45 6/6/6 5/5/5 46/96/46 
s 1
f 47/97/47 7/98/7 6/99/6 45/100/45 
s 2
f 48/101/48 8/102/8 7/103/7 47/104/47 
s 1
f 46/105/46 5/106/5 8/107/8 48/108/48 
s 2
f 49/109/49 45/95/45 46/96/46 50/110/50 
f 51/111/51 49/109/49 50/110/50 52/112/52 
f 38/80/38 51/111/51 52/112/52 39/81/39 
f 53/113/53 34/114/34 33/115/33 54/116/54 
f 55/117/55 53/113/53 54/116/54 56/118/56 
f 57/119/57 55/117/55 56/118/56 58/120/58 
f 40/82/40 57/119/57 58/120/58 37/79/37 
s 1
f 59/121/59 47/97/47 45/100/45 49/122/49 
f 60/123/60 59/121/59 49/122/49 51/124/51 
f 42/84/42 60/123/60 51/124/51 38/85/38 
f 54/125/54 33/126/33 35/127/35 61/128/61 
f 56/129/56 54/125/54 61/128/61 62/130/62 
f 58/131/58 56/129/56 62/130/62 63/132/63 
f 37/86/37 58/131/58 63/132/63 41/83/41 
s 2
f 64/133/64 48/101/48 47/104/47 59/134/59 
f 65/135/65 64/133/64 59/134/59 60/136/60 
f 44/88/44 65/135/65 60/136/60 42/89/42 
f 61/137/61 35/138/35 36/139/36 66/140/66 
f 62/141/62 61/137/61 66/140/66 67/142/67 
f 63/143/63 62/141/62 67/142/67 68/144/68 
f 41/90/41 63/143/63 68/144/68 43/87/43 
s 1
f 50/145/50 46/105/46 48/108/48 64/146/64 
f 52/147/52 50/145/50 64/146/64 65/148/65 
f 39/92/39 52/147/52 65/148/65 44/93/44 
f 66/149/66 36/150/36 34/151/34 53/152/53 
f 67/153/67 66/149/66 53/152/53 55/154/55 
f 68/155/68 67/153/67 55/154/55 57/156/57 
f 43/94/43 68/155/68 57/156/57 40/91/40 
# 66 polygons

