# 3ds Max Wavefront OBJ Exporter v0.97b - (c)2007 guruware
# File Created: 16.11.2018 09:03:16

mtllib Bullet.mtl

#
# object w
#

v  4.0763 73.3995 69.3088
v  2.0158 72.2099 69.3088
v  -0.3272 72.6230 69.3088
v  -1.8565 74.4456 69.3088
v  -1.8565 76.8248 69.3088
v  -0.3272 78.6473 69.3088
v  2.0158 79.0605 69.3088
v  4.0763 77.8709 69.3088
v  4.8900 75.6352 69.3088
v  4.0763 77.8709 70.5793
v  4.8900 75.6352 70.5793
v  2.0158 79.0605 70.5793
v  -1.8565 74.4456 70.5793
v  -1.8565 76.8248 70.5793
v  -0.3272 72.6230 70.5793
v  2.0158 72.2099 70.5793
v  4.0763 73.3995 70.5793
v  2.1686 75.6352 83.5882
v  1.9916 76.1216 83.5882
v  1.5433 76.3804 83.5882
v  1.0335 76.2905 83.5882
v  0.7007 75.8940 83.5882
v  0.7007 75.3763 83.5882
v  1.0335 74.9798 83.5882
v  1.5433 74.8899 83.5882
v  1.9916 75.1487 83.5882
v  3.5742 77.4496 70.5793
v  4.2346 75.6352 70.5793
v  1.9020 78.4150 70.5793
v  -1.2406 74.6698 70.5793
v  -1.2406 76.6006 70.5793
v  0.0005 73.1906 70.5793
v  1.9020 72.8554 70.5793
v  3.5742 73.8208 70.5793
v  3.5742 77.4496 71.2293
v  4.2346 75.6352 71.2293
v  1.9020 78.4150 71.2293
v  -1.2406 74.6698 71.2293
v  -1.2406 76.6006 71.2293
v  0.0005 73.1906 71.2293
v  1.9020 72.8554 71.2293
v  3.5742 73.8208 71.2293
v  4.1218 77.9091 71.2293
v  4.9495 75.6352 71.2293
v  2.0262 79.1191 71.2293
v  -1.9124 74.4252 71.2293
v  -1.9124 76.8451 71.2293
v  -0.3569 72.5715 71.2293
v  2.0262 72.1513 71.2293
v  4.1218 73.3612 71.2293
v  4.1218 77.9091 80.4066
v  4.9495 75.6352 80.4066
v  2.0262 79.1190 80.4066
v  -1.9124 74.4252 80.4066
v  -1.9124 76.8451 80.4066
v  -0.3569 72.5715 80.4066
v  2.0262 72.1513 80.4066
v  4.1218 73.3612 80.4066
v  3.4218 77.3217 82.2798
v  4.0356 75.6352 82.2798
v  1.8675 78.2191 82.2798
v  -1.0537 74.7378 82.2798
v  -1.0537 76.5326 82.2798
v  0.1000 73.3629 82.2798
v  1.8675 73.0513 82.2798
v  3.4218 73.9486 82.2798
v  -0.3272 78.6473 70.5793
v  0.0005 78.0797 70.5793
v  0.0005 78.0797 71.2293
v  -0.3569 78.6988 71.2293
v  -0.3569 78.6988 80.4066
v  0.1000 77.9074 82.2798
# 72 vertices

vn 0.5901 -0.4952 -0.6376
vn 0.1338 -0.7586 -0.6377
vn -0.3852 -0.6671 -0.6377
vn -0.7239 -0.2635 -0.6376
vn -0.7239 0.2635 -0.6376
vn -0.3852 0.6671 -0.6377
vn 0.1338 0.7586 -0.6377
vn 0.5901 0.4952 -0.6377
vn 0.7703 -0.0000 -0.6377
vn 0.5901 0.4952 0.6377
vn 0.7703 -0.0000 0.6377
vn 0.1338 0.7586 0.6377
vn -0.7239 -0.2635 0.6376
vn -0.7239 0.2635 0.6376
vn -0.3852 -0.6671 0.6377
vn 0.1338 -0.7586 0.6377
vn 0.5901 -0.4952 0.6376
vn 0.3631 -0.0000 0.9317
vn 0.2782 0.2334 0.9317
vn 0.0631 0.3576 0.9317
vn -0.1816 0.3145 0.9317
vn -0.3412 0.1242 0.9317
vn -0.3412 -0.1242 0.9317
vn -0.1816 -0.3145 0.9317
vn 0.0631 -0.3576 0.9317
vn 0.2782 -0.2334 0.9317
vn 0.4669 0.3918 0.7928
vn 0.6095 -0.0000 0.7928
vn 0.1058 0.6003 0.7928
vn -0.5728 -0.2085 0.7928
vn -0.5728 0.2085 0.7928
vn -0.3048 -0.5278 0.7928
vn 0.1059 -0.6002 0.7928
vn 0.4669 -0.3918 0.7928
vn 0.4669 0.3918 -0.7928
vn 0.6095 -0.0000 -0.7928
vn 0.1058 0.6003 -0.7928
vn -0.5728 -0.2085 -0.7928
vn -0.5728 0.2085 -0.7928
vn -0.3048 -0.5278 -0.7928
vn 0.1059 -0.6002 -0.7928
vn 0.4669 -0.3918 -0.7928
vn 0.7704 0.0000 -0.6376
vn 0.1338 0.7587 -0.6376
vn 0.7486 0.6282 0.2122
vn 0.9772 -0.0000 0.2122
vn 0.1697 0.9624 0.2121
vn -0.9183 -0.3342 0.2121
vn -0.9183 0.3342 0.2121
vn -0.4886 -0.8463 0.2122
vn 0.1697 -0.9624 0.2122
vn 0.7486 -0.6282 0.2121
vn 0.6020 0.5052 0.6183
vn 0.7859 -0.0000 0.6183
vn 0.1365 0.7740 0.6183
vn -0.7385 -0.2688 0.6183
vn -0.7385 0.2688 0.6183
vn -0.3930 -0.6806 0.6183
vn 0.1365 -0.7740 0.6183
vn 0.6020 -0.5052 0.6183
vn -0.3852 0.6671 0.6377
vn -0.3048 0.5279 0.7928
vn -0.3048 0.5279 -0.7928
vn -0.3852 0.6671 -0.6376
vn -0.4886 0.8463 0.2121
vn -0.3930 0.6806 0.6183
# 66 vertex normals

vt 0.1953 0.0000 -0.3473
vt 0.0292 0.0000 -0.8794
vt 0.0833 0.0000 -1.0000
vt 0.3325 0.0000 -0.6527
vt 0.6600 0.0000 -0.0000
vt 0.9126 0.0000 0.6527
vt 0.9722 0.0000 1.0000
vt 0.8611 0.0000 1.0000
vt 0.7500 0.0000 1.0000
vt 0.8611 1.0000 1.0000
vt 0.7500 1.0000 1.0000
vt 0.9689 0.0000 1.0000
vt 0.9689 1.0000 1.0000
vt 0.1944 0.0000 1.0000
vt 0.3056 0.0000 1.0000
vt 0.3056 1.0000 1.0000
vt 0.1944 1.0000 1.0000
vt 0.4167 0.0000 1.0000
vt 0.4167 1.0000 1.0000
vt 0.5278 0.0000 1.0000
vt 0.5278 1.0000 1.0000
vt 0.6389 0.0000 1.0000
vt 0.6389 1.0000 1.0000
vt 0.9722 1.0000 1.0000
vt 0.9126 1.0000 0.6527
vt 0.6600 1.0000 0.0000
vt 0.3325 1.0000 -0.6527
vt 0.0833 1.0000 -1.0000
vt 0.0292 1.0000 -0.8794
vt 0.1953 1.0000 -0.3473
vt -0.0278 0.0000 1.0000
vt 0.0833 0.0000 1.0000
vt 0.0833 1.0000 1.0000
vt -0.0278 1.0000 1.0000
# 34 texture coords

o w
g w
usemtl wire_087225198
s 1
f 1/1/1 2/2/2 3/3/3 4/4/4 5/5/5 6/6/6 7/7/7 8/8/8 9/9/9 
s 8
f 9/9/9 8/8/8 10/10/10 11/11/11 
f 8/8/8 7/12/7 12/13/12 10/10/10 
f 5/14/5 4/15/4 13/16/13 14/17/14 
f 4/15/4 3/18/3 15/19/15 13/16/13 
f 3/18/3 2/20/2 16/21/16 15/19/15 
f 2/20/2 1/22/1 17/23/17 16/21/16 
f 1/22/1 9/9/9 11/11/11 17/23/17 
s 1
f 18/11/18 19/10/19 20/24/20 21/25/21 22/26/22 23/27/23 24/28/24 25/29/25 26/30/26 
s off
f 11/11/11 10/10/10 27/10/27 28/11/28 
f 10/10/10 12/24/12 29/24/29 27/10/27 
f 14/26/14 13/27/13 30/27/30 31/26/31 
f 13/27/13 15/28/15 32/28/32 30/27/30 
f 15/28/15 16/29/16 33/29/33 32/28/32 
f 16/29/16 17/30/17 34/30/34 33/29/33 
f 17/30/17 11/11/11 28/11/28 34/30/34 
f 28/11/28 27/10/27 35/10/35 36/11/36 
f 27/10/27 29/24/29 37/24/37 35/10/35 
f 31/26/31 30/27/30 38/27/38 39/26/39 
f 30/27/30 32/28/32 40/28/40 38/27/38 
f 32/28/32 33/29/33 41/29/41 40/28/40 
f 33/29/33 34/30/34 42/30/42 41/29/41 
f 34/30/34 28/11/28 36/11/36 42/30/42 
f 36/11/36 35/10/35 43/10/8 44/11/43 
f 35/10/35 37/24/37 45/24/44 43/10/8 
f 39/26/39 38/27/38 46/27/4 47/26/5 
f 38/27/38 40/28/40 48/28/3 46/27/4 
f 40/28/40 41/29/41 49/29/2 48/28/3 
f 41/29/41 42/30/42 50/30/1 49/29/2 
f 42/30/42 36/11/36 44/11/43 50/30/1 
f 44/11/43 43/10/8 51/10/45 52/11/46 
f 43/10/8 45/24/44 53/24/47 51/10/45 
f 47/26/5 46/27/4 54/27/48 55/26/49 
f 46/27/4 48/28/3 56/28/50 54/27/48 
f 48/28/3 49/29/2 57/29/51 56/28/50 
f 49/29/2 50/30/1 58/30/52 57/29/51 
f 50/30/1 44/11/43 52/11/46 58/30/52 
f 52/11/46 51/10/45 59/10/53 60/11/54 
f 51/10/45 53/24/47 61/24/55 59/10/53 
f 55/26/49 54/27/48 62/27/56 63/26/57 
f 54/27/48 56/28/50 64/28/58 62/27/56 
f 56/28/50 57/29/51 65/29/59 64/28/58 
f 57/29/51 58/30/52 66/30/60 65/29/59 
f 58/30/52 52/11/46 60/11/54 66/30/60 
f 60/11/54 59/10/53 19/10/19 18/11/18 
f 59/10/53 61/24/55 20/24/20 19/10/19 
f 63/26/57 62/27/56 23/27/23 22/26/22 
f 62/27/56 64/28/58 24/28/24 23/27/23 
f 64/28/58 65/29/59 25/29/25 24/28/24 
f 65/29/59 66/30/60 26/30/26 25/29/25 
f 66/30/60 60/11/54 18/11/18 26/30/26 
s 8
f 7/31/7 6/32/6 67/33/61 12/34/12 
s off
f 12/24/12 67/25/61 68/25/62 29/24/29 
f 29/24/29 68/25/62 69/25/63 37/24/37 
f 37/24/37 69/25/63 70/25/64 45/24/44 
f 45/24/44 70/25/64 71/25/65 53/24/47 
f 53/24/47 71/25/65 72/25/66 61/24/55 
f 61/24/55 72/25/66 21/25/21 20/24/20 
s 8
f 6/32/6 5/14/5 14/17/14 67/33/61 
s off
f 67/25/61 14/26/14 31/26/31 68/25/62 
f 68/25/62 31/26/31 39/26/39 69/25/63 
f 69/25/63 39/26/39 47/26/5 70/25/64 
f 70/25/64 47/26/5 55/26/49 71/25/65 
f 71/25/65 55/26/49 63/26/57 72/25/66 
f 72/25/66 63/26/57 22/26/22 21/25/21 
# 65 polygons

